<?xml version="1.0" standalone="no"?>
<!DOCTYPE svg PUBLIC "-//W3C//DTD SVG 20010904//EN"
 "http://www.w3.org/TR/2001/REC-SVG-20010904/DTD/svg10.dtd">
<svg version="1.0" xmlns="http://www.w3.org/2000/svg"
 width="1707.000000pt" height="1707.000000pt" viewBox="0 0 1707.000000 1707.000000"
 preserveAspectRatio="xMidYMid meet">
<metadata>
Created by potrace 1.14, written by Peter Selinger 2001-2017
</metadata>
<g transform="translate(0.000000,1707.000000) scale(0.100000,-0.100000)"
fill="#000000" stroke="none">
<path d="M11012 17018 c-21 -29 -519 -712 -1107 -1518 -1219 -1671 -3582
-4909 -3663 -5018 -30 -41 -57 -71 -60 -67 -4 4 -9 1448 -12 3210 -3 1762 -8
3206 -12 3210 -4 4 -161 -11 -350 -34 -189 -22 -1002 -120 -1808 -216 -806
-96 -1638 -196 -1850 -221 -212 -25 -389 -50 -395 -55 -20 -19 -23 -1028 -23
-8094 0 -6659 3 -8034 19 -8049 6 -6 412 40 1574 179 2343 279 2822 337 2833
340 9 4 12 615 13 3007 1 1652 4 3121 8 3265 l6 263 869 -1293 c478 -710 1571
-2335 2429 -3611 l1561 -2319 100 6 c115 6 125 9 976 266 544 165 1983 599
2655 801 204 61 414 125 468 141 l97 30 0 139 0 140 -1828 2612 c-2324 3322
-3204 4581 -3242 4645 -13 19 -8 29 50 110 224 308 1223 1648 3424 4593 l1596
2135 -3 145 -2 144 -535 152 c-294 84 -1077 306 -1740 494 -1783 506 -1835
519 -1947 520 l-62 0 -39 -52z"/>
</g>
</svg>
